<svg width="506" height="407" viewBox="0 0 506 407" fill="none" xmlns="http://www.w3.org/2000/svg">
<path d="M397.968 158.588C401.995 157.711 406.029 156.813 410.156 157.992C412.87 160.987 412.676 164.894 412.884 168.425C413.312 175.742 413.306 183.113 411.141 190.269C410.887 191.12 410.947 192.025 411.403 192.849C413.011 197.58 415.899 201.647 418.144 206.056C422.077 211.913 424.503 218.499 427.411 224.865C430.265 231.11 432.121 237.643 433.502 244.297C434.668 249.919 433.26 255.427 431.15 260.634C425.374 274.852 417.406 287.865 409.084 300.717C400.755 313.576 391.294 325.55 381.98 337.665C376.438 344.875 369.523 349.197 360.645 350.792C351.411 352.447 342.084 353.378 332.79 354.511C320.4 356.012 307.991 357.687 295.547 358.317C283.111 358.946 270.668 359.777 258.131 358.873C249.353 358.243 240.702 356.4 231.877 356.46C231.194 353.673 232.695 351.288 233.371 348.775C237.017 335.353 236.635 322.16 229.974 309.803C222.55 296.02 208.257 285.339 189.73 287.993C189.173 288.073 188.617 288.046 188.068 287.959C181.166 286.807 174.733 288.649 168.663 291.577C157.332 297.039 148.621 305.475 141.826 316.022C137.29 323.057 133.102 330.294 129.128 337.658C128.391 339.019 127.916 340.975 125.577 340.251C130.113 328.197 132.405 315.392 137.866 303.652C138.328 302.66 138.878 301.709 139.387 300.744C142.972 292.636 150.504 289.433 157.915 286.505C166.492 283.121 175.256 280.166 184.342 278.297C201.798 274.692 219.34 271.623 237.05 269.566C243.349 268.835 249.634 268.112 255.993 268.346C257.206 268.393 258.459 268.225 259.585 268.862C260.717 270.557 258.968 270.866 258.211 271.562C253.869 275.576 249.312 279.436 246.13 284.461C238.698 296.181 238.31 308.316 244.521 320.712C248.676 328.994 254.485 335.99 261.106 342.376C262.164 343.401 263.417 344.165 264.838 344.527C271.438 346.188 278.079 347.575 284.954 347.173C289.095 348.487 293.39 348.232 297.551 347.884C305.424 347.227 313.344 347.756 321.191 346.684C322.625 346.49 324.039 346.202 325.459 345.94C334.539 345.746 343.344 344.004 351.713 340.499C355.472 338.925 358.065 335.749 360.584 332.599C366.863 324.746 371.728 316.008 376.546 307.244C377.283 306.098 377.544 304.751 378.087 303.525C384.365 291.564 389.25 279.02 393.331 266.168C394.879 261.297 396.4 256.405 397.613 251.42C399.167 245.001 399.864 238.494 400.487 231.968C400.46 230.802 400.594 229.623 400.045 228.524C396.413 220.751 392.54 213.085 389.706 204.957C388.64 201.902 387.535 198.866 386.65 195.757C386.422 194.618 386.04 193.506 385.987 192.333C386.55 189.291 389.264 188.005 391.234 186.182C393.096 184.46 395.14 182.912 397.097 181.277C398.33 180.252 398.959 178.918 398.035 177.471C397.077 175.977 395.515 176.171 394.155 176.834C391.85 177.953 390.034 179.816 387.917 181.23C386.851 181.94 385.873 183.1 384.352 182.208C379.42 173.33 384.171 162.729 394.39 159.781C395.596 159.433 396.976 159.567 397.981 158.602L397.968 158.588Z" fill="#F72D57"/>
<path d="M286.287 141.917C287.64 145.844 290.837 148.584 292.847 152.116C294.475 154.977 296.639 157.537 298.549 160.244C299.233 161.215 300.197 162.2 298.851 163.386C291.493 163.795 286.374 168.486 281.02 172.72C280.156 173.404 279.452 174.302 278.293 174.543C277.971 174.57 277.65 174.543 277.335 174.456C270.44 168.613 264.101 162.348 261.132 152.88C260.61 157.717 260.429 161.899 263.384 165.671C265.917 168.914 267.813 172.593 269.937 176.111C270.761 177.485 271.679 178.718 273.515 178.677C274.467 179.475 275.103 180.433 275.097 181.733C273.287 189.479 268.483 194.384 260.904 196.649C257.996 197.52 257.299 198.645 257.829 201.56C257.909 202.003 257.983 202.458 258.177 202.847C261.079 208.683 258.66 212.918 254.043 216.429C246.545 222.125 238.564 226.809 229.344 229.355C221.819 231.432 214.395 233.751 206.515 233.965C204.706 233.911 202.816 234.045 201.925 231.921C199.7 228.202 200.618 224.343 201.536 220.543C203.56 212.235 207.761 204.837 211.339 197.165C218.589 181.619 225.35 165.832 234.624 151.318C239.429 143.793 244.36 136.369 251.363 130.613C254.237 128.254 257.494 127.028 261.213 127.035C263.652 127.182 265.079 129.032 266.794 130.392C272.021 134.54 278.186 137.193 283.667 140.939C284.813 141.723 285.985 142.306 285.878 143.974C285.992 144.356 286.454 143.907 286.012 143.994C285.912 144.015 285.858 143.914 285.858 143.7C285.858 143.07 285.543 142.366 286.28 141.917H286.287Z" fill="#F72D57"/>
<path d="M102.707 250.576C98.5999 249.745 95.9263 246.971 95.7119 242.977C95.5711 240.344 95.7655 237.69 95.8124 235.044C96.0804 234.836 96.3618 234.648 96.6567 234.481C103.9 232.658 111.338 231.74 118.555 229.717C142.905 222.882 163.295 210.083 179.102 190.169C185.388 182.255 190.795 173.886 193.817 164.143C193.958 163.688 194.293 163.406 194.735 163.245C195.854 163.627 195.057 164.767 195.579 165.376C195.593 190.906 195.599 216.436 195.619 241.965C195.619 245.993 193.502 248.619 190.132 250.449C188.188 252.084 185.796 252.104 183.491 252.117C161.908 252.204 140.312 252.646 118.749 251.97C113.489 251.802 108.061 251.058 102.714 250.569L102.707 250.576Z" fill="#D32045"/>
<path d="M137.377 362.625C135.675 362.464 133.966 362.297 132.264 362.136C133.108 360.514 133.919 359.007 133.953 356.976C134.181 342.831 139.059 330.555 148.661 320.029C157.07 310.808 166.284 302.747 177.615 297.32C178.533 296.878 179.149 296.027 180.107 295.678C192.229 297.956 202.126 303.545 207.935 314.889C211.822 322.474 212.485 330.763 211.916 339.052C211.446 345.933 210.314 352.788 208.056 359.382C207.694 360.434 207.379 361.513 206.622 362.39C204.766 363.804 202.595 363.329 200.531 363.369C197.985 363.409 195.445 363.476 192.899 363.469C184.677 362.136 176.435 362.652 168.187 363.114C162.297 363.677 156.4 363.335 150.503 363.409C147.528 362.953 144.547 363.57 141.565 363.375C140.137 363.282 138.67 363.476 137.377 362.638V362.625Z" fill="#F72D57"/>
<path d="M231.931 356.373C235.77 354.584 239.603 356.045 243.389 356.514C256.415 358.142 269.441 359.027 282.568 357.781C288.096 357.258 293.671 357.848 299.226 357.077C306.898 356.012 314.638 355.476 322.337 354.604C329.265 353.827 336.214 353.09 343.142 352.286C349.736 351.522 356.343 350.798 362.856 349.425C370.635 347.776 376.452 343.401 381.189 337.136C388.754 327.138 396.782 317.503 403.77 307.063C412.562 293.936 420.991 280.595 427.786 266.323C430.386 260.861 432.751 255.173 432.845 248.954C432.965 241.215 429.957 234.179 427.411 227.103C425.541 221.903 422.841 217.005 420.864 211.839C420.087 209.815 417.4 208.737 418.123 206.063C423.564 213.997 431.786 219.478 436.986 227.653C453.992 254.375 452.116 284.475 430.607 309.194C430.104 309.77 429.461 310.219 428.878 310.728C428.007 312.651 426.137 312.892 424.422 313.228C412.917 315.479 403.737 321.449 396.205 330.314C391.307 336.084 388.855 342.925 386.838 350.008C386.375 351.623 386.06 353.264 384.6 354.343C383.32 357.586 380.445 358.839 377.497 359.911C372.726 361.647 367.714 362.19 362.695 362.196C319.12 362.257 275.552 362.237 231.978 362.243C231.643 362.243 231.314 362.183 230.979 362.149C229.592 361.975 229.425 361.118 229.867 360.019C230.389 358.719 230.517 357.184 231.904 356.367L231.931 356.373Z" fill="#D32045"/>
<path d="M263.632 5.96632C266.225 5.96632 268.322 5.8859 270.406 6.51577C271.539 6.85751 272.751 6.69669 273.87 5.8457C282.32 -0.607089 291.621 -1.03593 301.518 1.77167C306.597 3.21233 311.08 6.58948 316.802 6.04672C320.259 5.71839 323.449 5.28285 326.672 3.63447C334.566 -0.406059 342.714 -1.02923 351.505 1.52374C359.633 3.88909 367.908 6.06682 376.492 6.757C379.782 7.02503 383.28 7.40697 386.195 9.75892C390.108 12.9083 389.545 18.5436 384.975 21.1166C378.388 24.8221 371.299 26.1422 363.828 24.9628C362.487 24.7551 361.67 25.1438 360.913 26.0149C355.599 32.1259 348.483 31.9048 341.494 31.1208C333.473 30.2229 325.54 28.6013 317.546 27.4622C314.329 27.0066 311.133 27.6297 307.997 28.4941C301.866 30.1894 295.668 31.0471 289.302 30.0755C287.191 29.7539 285.081 29.2714 283.325 28.1256C278.501 25.003 273.321 24.9427 267.914 25.7468C260.931 26.7787 254.144 25.8138 247.811 22.7382C244.87 21.311 242.116 18.959 242.752 15.2535C243.382 11.5681 246.398 9.21616 249.755 8.27806C254.412 6.97812 259.149 5.48387 263.652 5.95962L263.632 5.96632Z" fill="#F72D57"/>
<path d="M426.42 63.0559C428.069 63.0559 429.402 63.0046 430.727 63.4061C431.447 63.6239 432.218 63.5214 432.93 62.979C438.302 58.8664 444.215 58.5931 450.507 60.3825C453.736 61.3007 456.587 63.4531 460.225 63.1071C462.423 62.8979 464.451 62.6203 466.5 61.5697C471.518 58.9945 476.699 58.5973 482.288 60.2244C487.456 61.732 492.717 63.1199 498.174 63.5598C500.266 63.7307 502.49 63.9741 504.343 65.4731C506.831 67.4803 506.473 71.0719 503.568 72.7118C499.38 75.0735 494.873 75.9148 490.122 75.1632C489.27 75.0308 488.751 75.2785 488.269 75.8337C484.891 79.7285 480.367 79.5876 475.923 79.0879C470.824 78.5157 465.78 77.4822 460.698 76.7562C458.653 76.4658 456.621 76.8629 454.627 77.4138C450.729 78.4943 446.788 79.041 442.741 78.4217C441.399 78.2167 440.057 77.9092 438.941 77.179C435.874 75.1888 432.581 75.1504 429.143 75.6629C424.703 76.3206 420.388 75.7056 416.362 73.7453C414.492 72.8357 412.741 71.3367 413.146 68.975C413.546 66.6262 415.463 65.1272 417.598 64.5293C420.558 63.7008 423.57 62.7484 426.433 63.0516L426.42 63.0559Z" fill="#F72D57"/>
<path d="M20.9719 65.2196C23.5651 65.2196 25.6624 65.1392 27.7463 65.7691C28.8788 66.1108 30.0916 65.95 31.2106 65.099C39.6602 58.6462 48.9608 58.2174 58.8577 61.025C63.9369 62.4656 68.4197 65.8428 74.1421 65.3C77.5996 64.9717 80.7892 64.5361 84.0122 62.8878C91.9057 58.8472 100.054 58.2241 108.845 60.777C116.973 63.1424 125.248 65.3201 133.832 66.0103C137.122 66.2783 140.62 66.6603 143.535 69.0122C147.448 72.1616 146.885 77.7969 142.315 80.3699C135.728 84.0754 128.639 85.3955 121.168 84.2161C119.828 84.0084 119.01 84.3971 118.253 85.2682C112.939 91.3792 105.823 91.1581 98.8342 90.3741C90.8134 89.4762 82.8798 87.8546 74.8858 86.7155C71.6695 86.2599 68.4733 86.883 65.3373 87.7474C59.2062 89.4427 53.008 90.3004 46.6423 89.3288C44.5316 89.0071 42.4209 88.5247 40.6653 87.3789C35.8408 84.2563 30.6611 84.196 25.2537 85.0001C18.2715 86.032 11.4837 85.0671 5.15153 81.9915C2.20992 80.5642 -0.54409 78.2123 0.0924782 74.5068C0.722345 70.8214 3.73767 68.4695 7.09473 67.5314C11.7517 66.2314 16.4891 64.7372 20.992 65.2129L20.9719 65.2196Z" fill="#F72D57"/>
<path d="M99.1895 135.853C100.603 134.084 102.627 133.93 104.63 133.923C131.849 133.903 159.067 133.903 186.285 133.943C191.023 133.943 193.609 135.967 195.15 140.503C195.633 145.837 195.211 151.178 195.378 156.518C195.425 158.099 194.574 158.696 193.214 158.93C191.78 159.178 190.326 159.125 188.879 159.125C161.138 159.125 133.403 159.131 105.662 159.125C102.66 159.125 99.6251 159.245 96.8376 157.805C95.6716 156.21 96.335 154.387 96.2546 152.672C96.1407 150.239 96.4087 147.774 96.1809 145.355C95.8392 141.709 96.8443 138.594 99.1895 135.853Z" fill="#F72D57"/>
<path d="M231.931 356.374C232.085 358.377 229.311 359.912 231.013 362.156C228.942 362.813 226.624 361.513 224.66 362.967C223.984 363.068 223.314 363.048 222.65 362.853C219.36 362.444 216.077 362.371 212.807 362.92C212.525 363.054 212.224 363.161 211.922 363.242C210.12 362.719 207.922 363.63 206.488 361.748C209.316 352.273 211.406 342.677 211.112 332.707C210.763 321.061 206.897 310.996 197.509 303.612C193.536 300.49 188.758 298.814 183.94 297.541C182.426 297.139 181.179 296.188 179.638 296.02C177.635 295.953 176.569 294.781 176.355 292.925C176.147 291.149 177.28 289.97 178.74 289.259C181.528 287.899 184.429 286.874 187.626 287.309C195.244 286.009 202.689 286.499 209.805 289.688C221.022 294.727 228.868 303.17 233.15 314.554C237.573 326.321 237.687 338.396 233.787 350.423C233.15 352.4 232.547 354.384 231.931 356.367V356.374Z" fill="#B61A3B"/>
<path d="M223.119 362.243C223.635 362.485 224.144 362.732 224.66 362.974C223.883 380.261 216.01 393.355 200.605 401.141C185.448 408.807 170.271 407.694 156.233 398.065C143.93 389.629 137.712 377.601 137.377 362.619C141.706 362.424 146.041 361.701 150.329 362.954C151.167 363.644 151.428 364.602 151.562 365.607C153.445 379.29 161.412 387.538 174.459 391.244C193.763 394.614 208.579 381.803 210.321 366.331C210.455 365.125 210.663 363.898 211.52 362.927L211.896 362.33C215.635 361.808 219.374 361.969 223.113 362.243H223.119Z" fill="#22262A"/>
<path d="M278.132 174.148C282.427 170.254 286.91 166.629 292.163 164.083C294.301 163.051 296.479 162.287 298.844 163.379C298.971 164.251 298.911 165.195 299.246 165.979C301.169 170.462 303.206 174.898 305.169 179.367C305.699 180.567 306.349 181.391 307.83 181.478C320.782 182.242 333.607 184.44 346.593 184.962C350.996 185.137 355.398 185.988 359.747 186.785C362.742 187.334 365.663 187.723 368.639 186.879C372.766 185.706 377.296 187.006 381.269 184.862C381.893 185.907 382.723 186.731 383.742 187.408C385.444 188.534 386.503 190.075 386.603 192.179L387.293 195.543C386.556 199.577 384.278 202.572 380.928 204.783C379.983 205.406 378.984 206.391 377.664 205.453C377.189 204.622 377.363 203.751 377.544 202.887C377.698 202.136 377.906 201.393 378.053 200.635C378.495 198.397 378.542 195.885 376.947 194.384C375.312 192.849 373.007 193.901 371.084 194.786C368.672 196.126 366.186 197.285 363.452 197.794C361.985 197.138 360.497 197.198 358.996 197.687C357.736 198.103 356.463 198.35 355.143 197.888C351.733 197.265 348.288 197.151 344.838 197.158C331.677 197.205 318.571 196.246 305.451 195.221C296.264 194.504 289.088 190.631 283.533 183.435C282.106 181.585 280.202 180.118 278.996 178.081C278.293 176.888 277.113 175.742 278.132 174.141V174.148Z" fill="#F39E82"/>
<path d="M201.918 231.914C203.211 233.027 204.752 233.187 206.361 233.1C208.92 234.206 211.755 233.831 214.408 234.695C216.204 235.278 218.013 235.687 219.595 236.779C226.871 244.485 236.708 245.865 246.391 247.42C253.54 248.566 260.817 248.552 268.014 249.417C271.82 249.872 275.492 250.743 279.037 252.057C286.2 254.717 289.382 260.486 289.671 267.642C290.126 279.221 289.872 290.807 288.712 302.366C287.922 310.226 287.714 318.146 287.185 326.033C286.896 330.368 288.659 332.204 293.001 332.485C295.674 332.66 298.321 332.988 300.988 333.189C302.301 333.289 303.494 333.437 303.434 335.179C302.871 337.41 300.988 337.122 299.38 337.229C297.939 337.323 296.479 337.29 295.058 336.928C293.028 335.889 290.85 335.769 288.625 335.809C287.211 335.836 285.731 335.997 284.511 334.971C282.97 332.954 283.117 330.569 283.111 328.244C283.09 310.989 283.104 293.735 283.097 276.481C283.097 275.033 283.084 273.586 283.017 272.139C282.889 269.438 281.569 267.83 278.909 267.227C275.545 266.463 272.202 265.619 268.865 264.734C260.965 262.845 252.991 261.485 244.876 260.814C238.236 260.265 231.529 260.526 224.948 259.28C222.878 258.583 220.653 258.798 218.563 258.128C217.176 257.685 215.909 257.176 215.072 255.93C205.905 250.549 202.38 242.073 201.918 231.928V231.914Z" fill="#304A53"/>
<path d="M472.165 344.728C479.053 361.674 476.835 377.481 464.794 391.117C452.927 404.558 437.649 408.612 420.241 404.21C418.124 403.674 415.899 403.279 414.123 401.818C413.795 400.391 414.673 399.432 415.631 398.742C418.948 396.384 422.124 393.817 425.695 391.827C427.799 391.492 429.924 391.559 432.034 391.653C447.634 392.343 461.591 379.913 461.933 362.237C462.127 352.333 457.564 344.218 449.583 338.174C448.538 337.384 447.211 336.868 446.749 335.461C448.103 333.189 450.341 333.799 452.076 334.288C458.268 336.044 464.325 338.241 469.98 341.404C471.287 342.135 472.493 342.925 472.165 344.728Z" fill="#202328"/>
<path d="M384.62 354.35C386.878 347.562 388.245 340.446 392.272 334.328C397.767 325.979 405.003 319.774 414.069 315.479C418.847 313.214 424.241 313.187 428.891 310.728C430.01 312.189 431.578 311.452 432.932 311.465C451.634 311.666 465.658 320.055 475.582 335.681C475.749 335.943 475.709 336.325 475.77 336.653C476.614 339.226 475.502 339.561 473.538 338.449C469.766 336.305 466.154 333.919 462.254 331.956C457.771 329.704 453.041 328.297 448.203 327.895C428.657 326.28 411.597 332.659 396.487 344.801C392.855 347.716 390.624 351.777 387.93 355.449C387.347 356.239 386.878 358.089 385.323 356.333C384.948 355.723 385.551 354.758 384.613 354.35H384.62Z" fill="#F72D57"/>
<path d="M187.632 287.316C185.314 287.979 182.975 288.596 180.684 289.333C179.116 289.835 177.42 290.378 176.998 292.248C176.529 294.358 178.546 294.908 179.638 296.027C180.168 297.039 179.531 297.186 178.734 297.581C170.043 301.883 162.143 307.398 155.255 314.179C145.384 323.895 137.29 334.717 135.36 349.076C134.925 352.299 134.616 355.496 134.791 358.712C134.898 360.756 134.187 361.788 132.264 362.136C126.823 362.176 121.382 362.176 115.941 362.27C113.978 362.304 113.864 361.62 114.822 360.159C118.963 353.827 122.213 347.013 125.57 340.252C128.626 339.334 128.8 336.224 130.053 334.047C134.73 325.885 139.019 317.436 144.909 310.085C153.271 299.652 163.188 291.048 176.663 287.885C180.195 287.055 183.893 285.654 187.639 287.316H187.632Z" fill="#D32045"/>
<path d="M259.745 269.197C244.454 268.809 229.492 271.516 214.455 273.727C203.258 275.369 192.222 277.721 181.173 280.032C175.336 281.252 169.641 283.074 164.079 285.312C159.57 287.128 154.926 288.529 150.638 290.961C146.751 293.159 143.227 295.571 140.787 299.384C140.446 299.92 139.849 300.288 139.367 300.731C144.118 289.105 148.869 277.479 158.296 268.608C159.757 267.12 161.647 267.649 163.362 267.649C189.736 267.616 216.11 267.629 242.491 267.616C244.153 267.616 245.835 267.77 247.463 267.261C250.887 266.664 254.351 266.906 257.795 266.986C258.901 267.013 260.382 266.778 260.67 268.52C260.489 268.909 260.181 269.137 259.752 269.197H259.745Z" fill="#D32045"/>
<path d="M425.668 392.423C422.15 395.961 416.924 397.402 414.123 401.818C398.41 395.365 387.943 378.378 388.587 360.367C388.634 359.141 388.707 357.921 388.774 356.695C389.518 354.075 391.676 352.514 393.612 351.046C397.552 348.064 401.727 345.377 406.055 342.959C406.752 342.57 407.483 342.329 408.206 342.932C408.588 344.56 407.476 345.666 406.766 346.878C398.068 361.566 403.295 379.511 417.125 387.934C419.732 389.522 422.767 389.971 425.367 391.499C425.642 391.753 425.742 392.061 425.662 392.43L425.668 392.423Z" fill="#282B2F"/>
<path d="M281.449 65.3881C291.56 61.113 301.39 64.6711 307.046 74.7289C308.285 76.9401 309.284 79.2854 310.396 81.5636C308.902 83.6341 306.476 84.063 304.312 84.78C296.8 87.2726 289.564 90.4554 282.193 93.31C279.888 94.2011 277.496 94.7238 275.137 95.3671C272.758 96.0103 271.565 95.0923 271.264 92.5997C270.862 89.2895 271.847 86.1536 272.892 83.1115C275.03 76.8731 277.717 70.876 281.442 65.3881H281.449Z" fill="#F72D57"/>
<path d="M408.2 343.052C405.7 343.381 404.052 345.317 401.995 346.45C397.083 349.163 392.634 352.574 388.774 356.695C387.729 357.439 386.677 358.182 385.605 358.946C385.002 358.028 385.303 357.171 385.337 356.333C387.595 356.568 387.696 354.303 388.372 353.224C395.823 341.317 407.443 335.521 419.966 330.703C428.141 327.56 436.47 326.636 445.087 326.816C454.756 327.017 463.146 330.703 471.046 335.883C472.158 336.613 473.277 337.33 474.423 338C476.513 339.226 475.415 337.189 475.776 336.653C478.122 340.412 479.797 344.413 480.688 349.492C478.202 347.776 476.319 346.436 474.383 345.183C473.753 344.774 473.143 343.649 472.165 344.734C471.066 342.081 468.386 341.31 466.201 340.439C460.626 338.221 455.252 335.212 449.047 334.924C448.277 334.891 447.486 334.777 446.803 335.293C445.308 336.137 443.888 334.81 442.407 335.145C431.13 334.422 420.717 337.497 410.713 342.349C409.922 342.731 409.158 343.233 408.213 343.052H408.2Z" fill="#D32045"/>
<path d="M96.6029 157.389C128.123 158.816 159.657 157.59 191.177 158.086C194.219 158.133 195.278 157.349 195.11 154.213C194.869 149.656 195.11 145.08 195.15 140.51C196.289 143.298 195.606 146.212 195.66 149.053C195.753 154.494 195.619 159.935 195.579 165.383C194.956 164.847 195.09 164.097 195.01 163.413C192.919 163.748 190.815 163.835 188.697 163.829C160.012 163.815 131.319 163.829 102.634 163.802C100.65 163.802 98.593 164.143 96.7436 163.045C95.8591 161.182 96.0802 159.285 96.6096 157.389H96.6029Z" fill="#B61A3B"/>
<path d="M247.986 268.031C246.726 268.701 245.366 268.4 244.052 268.406C216.573 268.453 189.1 268.474 161.62 268.514C160.508 268.514 159.402 268.581 158.29 268.614C154.544 265.699 154.182 260.258 157.506 256.794C158.444 255.273 160.019 255.494 161.406 255.521C169.976 255.675 178.539 255.28 187.123 255.93C192.403 256.332 197.77 255.246 203.124 255.534C203.989 255.581 204.913 255.226 205.644 256.003C208.793 256.828 211.936 256.908 215.065 255.93C218.033 257.571 221.431 257.592 224.607 258.443C223.716 259.528 222.442 259.495 221.23 259.541C207.064 260.051 192.966 261.304 178.961 263.535C174.097 264.312 169.339 265.465 164.756 266.872C190.962 266.859 217.29 266.852 243.623 266.885C245.144 266.885 246.799 266.637 247.979 268.031H247.986Z" fill="#A6A1A1"/>
<path d="M281.449 65.3884C281.637 66.8223 280.926 67.9414 280.236 69.1073C276.584 75.2652 273.857 81.8186 272.303 88.8141C271.994 90.2011 272.055 91.7021 272.149 93.1361C272.249 94.6638 273.12 95.287 274.681 94.7442C278.943 93.2634 283.319 92.0639 287.453 90.2949C294.991 87.0719 302.737 84.4452 310.396 81.5572C314.98 79.8418 319.556 78.0997 324.153 76.4178C325.144 76.0559 326.418 75.3725 327.041 76.8667C327.724 78.5017 326.371 78.9976 325.211 79.4398C319.59 81.5773 313.961 83.6947 308.339 85.8189C307.079 87.3935 305.19 87.8559 303.434 88.4925C297.162 90.764 290.984 93.2902 284.686 95.4746C282.461 96.2452 280.558 97.592 278.461 98.577C276.001 99.7966 273.113 99.6156 270.694 100.956C270.132 101.264 269.676 101.82 268.932 101.612C266.332 100.205 266.151 97.7126 266.198 95.2133C266.352 86.5023 267.404 78.0326 273.348 71.0438C275.546 68.4573 278.132 66.3734 281.456 65.375L281.449 65.3884Z" fill="#D32045"/>
<path d="M278.199 98.5367C279.419 96.8682 281.047 95.8899 283.004 95.1863C291.473 92.1308 299.896 88.9547 308.339 85.8254C308.352 87.6011 307.917 89.4304 309.016 91.0654C309.532 94.0405 309.069 97.0491 309.277 100.031C309.398 101.766 308.466 102.363 306.999 102.711C303.434 103.569 299.836 104.293 296.305 105.291C291.078 105.954 285.845 105.251 280.618 105.351C279.111 105.378 277.75 104.876 277.02 103.368C276.551 101.545 275.948 99.6892 278.206 98.53L278.199 98.5367Z" fill="#F39E81"/>
<path d="M286.287 141.917C286.193 142.574 286.106 143.23 286.046 143.659C278.011 137.83 268.644 133.856 261.213 127.041C264.503 123.959 264.369 119.543 265.488 115.335C266.48 116.367 267.223 117.151 267.967 117.928C271.579 120.032 274.031 123.45 277.201 126.05C279.854 128.14 282.983 129.561 285.429 131.94C286.072 135.236 286.24 138.573 286.28 141.924L286.287 141.917Z" fill="#D32045"/>
<path d="M205.65 255.996C204.009 256.519 202.387 256.646 200.618 256.626C186.459 256.499 172.301 256.579 158.149 256.6C157.935 256.6 157.727 256.72 157.512 256.787C144.486 256.707 131.453 256.633 118.427 256.519C117.141 256.506 115.733 256.975 114.588 255.936C115.03 254.683 116.115 254.368 117.241 254.234C119.673 253.939 122.079 253.464 124.552 253.43C145.377 253.182 166.19 252.016 187.022 252.083C193.261 252.103 199.499 252.452 205.731 251.929C206.803 253.303 206.481 254.65 205.657 255.99L205.65 255.996Z" fill="#B61A3B"/>
<path d="M205.724 251.936C205.416 253.598 204.082 253.142 203.057 253.149C198.38 253.189 193.696 253.276 189.026 253.149C173.34 252.727 157.667 253.645 142 254.06C133.725 254.274 125.349 253.785 117.094 255.166C116.196 255.313 115.352 255.474 114.581 255.943C113.844 255.708 113.388 255.052 113.549 254.442C114.608 250.375 111.8 251.145 109.515 251.038C107.244 250.938 104.912 251.561 102.707 250.576C126.079 251.373 149.452 251.105 172.824 251.152C178.6 251.165 184.382 251.266 190.125 250.455C193.944 251.52 197.851 250.703 201.71 250.991C203.084 251.092 204.659 250.482 205.731 251.929L205.724 251.936Z" fill="#B61A3B"/>
<path d="M78.8326 376.395C69.6929 376.395 60.5598 376.395 51.42 376.395C50.5288 376.395 49.5907 376.543 48.7598 376.315C47.5939 375.993 45.6775 376.308 45.7445 374.425C45.8249 372.301 47.7279 373.165 48.8871 373.072C65.1163 371.785 81.3789 372.723 97.6214 372.495C101.052 372.449 104.483 372.864 107.92 373.045C109.066 373.105 110.366 373.085 110.467 374.559C110.581 376.275 109.207 376.395 107.92 376.402C102.124 376.402 96.3349 376.402 90.5388 376.402C86.639 376.402 82.7392 376.402 78.8393 376.402L78.8326 376.395Z" fill="#F72D57"/>
<path d="M381.276 162.093C377.551 163.165 375.641 162.401 375.835 159.306C376.365 150.856 377.698 142.507 380.881 134.567C381.069 134.091 381.598 133.756 381.966 133.354C384.774 132.087 386.349 133.447 387.428 135.907C390.021 141.83 388.821 147.66 386.851 153.402C385.712 156.712 384.754 160.244 381.27 162.093H381.276Z" fill="#B61A3B"/>
<path d="M296.204 104.447C299.816 103.556 303.394 102.517 307.046 101.833C308.721 101.519 308.929 100.694 308.929 99.3609C308.929 96.6002 308.975 93.8396 309.009 91.0789C310.269 93.9602 308.66 97.2435 309.746 99.8702C311.16 103.301 309.947 106.042 308.868 108.923C307.26 113.191 304.607 116.924 302.241 120.79C300.439 123.738 298.274 121.976 296.197 121.172C291.118 115.851 291.118 108.494 296.197 104.453L296.204 104.447Z" fill="#CDCACB"/>
<path d="M285.436 131.933C282.106 130.847 279.492 128.623 276.792 126.532C275.894 122.257 275.633 117.808 273.267 113.942C272.899 113.338 273.113 112.655 273.12 112.005C273.984 110.397 275.378 109.305 276.772 108.219C278.983 108.159 280.504 109.432 281.864 110.94C284.618 113.982 287.299 116.997 291.219 118.746C293.792 119.892 293.879 121.232 292.163 122.525C289.966 122.86 288.867 124.314 288.089 126.271C287.319 128.207 286.32 130.05 285.423 131.933H285.436Z" fill="#E57866"/>
<path d="M77.9347 394.521C68.3527 394.521 58.7707 394.561 49.1886 394.48C47.8686 394.467 45.6574 395.398 45.6909 392.765C45.7244 390.38 47.7681 391.21 49.0077 391.21C68.279 391.157 87.5569 391.17 106.828 391.17C107.384 391.17 107.941 391.163 108.497 391.184C109.616 391.23 110.547 391.639 110.493 392.912C110.433 394.172 109.448 394.487 108.349 394.5C107.572 394.514 106.788 394.514 106.011 394.514C96.6498 394.514 87.2956 394.514 77.9347 394.514V394.521Z" fill="#F72D57"/>
<path d="M292.17 122.525C293.939 120.756 291.842 119.738 291.071 119.483C286.555 118.022 283.881 114.484 281.027 111.134C279.881 109.794 278.246 109.345 276.819 108.514C275.365 106.544 275.666 104.748 277.355 103.087C278.246 103.917 279.144 104.494 280.511 104.474C285.737 104.38 290.971 104.44 296.197 104.447C294.22 107.435 293.081 110.591 293.443 114.304C293.698 116.937 296.063 118.572 296.19 121.165C294.891 121.748 293.751 122.793 292.17 122.525Z" fill="#E7B09D"/>
<path d="M95.5778 385.173C85.7679 385.173 75.9581 385.193 66.1482 385.14C65.1029 385.14 63.2937 385.857 63.2736 383.94C63.2535 382.252 64.8952 382.433 66.1013 382.433C85.721 382.426 105.341 382.426 124.967 382.433C126.167 382.433 127.808 382.218 127.835 383.894C127.869 385.823 126.066 385.14 125.014 385.147C115.204 385.2 105.394 385.18 95.5845 385.18L95.5778 385.173Z" fill="#F72D57"/>
<path d="M411.396 192.856C409.835 191.442 410.625 189.727 410.88 188.145C412.515 178.041 412.917 167.983 410.156 157.992C415.403 157.992 422.104 164.586 424.141 171.139C426.814 179.729 421.125 186.537 413.601 189.908C412.006 190.625 411.208 191.174 411.389 192.863L411.396 192.856Z" fill="#E1C297"/>
<path d="M381.276 162.093C384.848 157.764 386.496 152.605 387.648 147.237C388.352 143.934 388.144 140.637 387.206 137.414C386.462 134.854 385.028 133.018 381.973 133.354C384.278 130.419 386.161 132.355 387.488 134.184C389.813 137.374 390.376 141.187 389.806 145.046C389.337 148.236 388.587 151.385 387.836 154.528C387.602 155.513 387.34 156.31 387.762 157.382C388.741 159.835 389.732 161.517 392.788 159.788C394.302 158.93 396.138 158.588 397.961 158.588C398.658 158.85 399.495 159.178 397.968 159.386C393.739 159.962 390.242 162.086 387.287 164.927C383.273 168.787 382.388 173.632 383.849 178.945C384.144 180.011 384.365 181.089 384.62 182.162C384.164 183.964 383.34 184.339 382.02 182.845C378.475 176.513 379.527 169.142 384.687 164.204C385.169 163.741 385.719 163.353 386.188 162.877C387.065 161.979 386.335 161.202 385.873 160.498C385.33 159.674 384.727 160.217 384.204 160.625C383.32 161.316 382.449 162.006 381.269 162.093H381.276Z" fill="#D32045"/>
<path d="M382.033 182.852C383.146 183.555 383.923 183.006 384.633 182.168C387.856 180.815 390.168 178.141 393.056 176.332C394.946 175.146 397.244 174.549 398.745 176.727C400.105 178.697 399.65 180.667 397.432 182.148C395.596 183.374 393.894 184.835 392.245 186.316C390.222 188.125 387.91 189.673 386.61 192.179C385.538 190.028 384.211 188.078 381.899 187.107C380.633 186.577 380.62 185.847 381.283 184.855C382.067 184.386 382.054 183.616 382.04 182.838L382.033 182.852Z" fill="#B61A3B"/>
<path d="M277.355 103.086C276.725 104.849 276.765 106.685 276.819 108.514C276.041 109.955 275.157 111.288 273.468 111.797C273.24 112.179 272.992 112.193 272.724 111.831C269.501 112.213 268.235 110.638 268.463 107.576C268.61 105.593 268.771 103.609 268.925 101.619C270.312 99.7294 272.034 98.6171 274.514 99.0325C275.532 99.2 276.356 98.8851 277.067 97.9604C277.871 96.9151 277.991 97.9738 278.199 98.5367C277.408 99.9572 277.14 101.478 277.355 103.086Z" fill="#67302E"/>
<path d="M96.6029 157.389C96.5895 159.178 96.5828 160.967 96.5694 162.763C97.7353 164.043 97.6348 165.644 97.6348 167.185C97.6616 188.319 97.6616 209.453 97.6348 230.587C97.6348 232.129 97.7621 233.73 96.6297 235.037C96.355 235.037 96.087 235.037 95.8122 235.037C95.7586 227.673 95.6648 220.309 95.6581 212.944C95.638 189.948 95.6715 166.944 95.6447 143.947C95.6447 140.684 96.0937 137.716 99.1894 135.853C99.1961 135.967 99.2564 136.107 99.2095 136.181C94.7736 142.815 97.0921 150.273 96.6029 157.389Z" fill="#A54041"/>
<path d="M272.731 111.838C272.979 111.824 273.227 111.818 273.468 111.804C275.525 115.456 276.303 119.53 277.167 123.544C277.355 124.422 278.742 125.795 276.792 126.532C273.509 124.013 270.56 121.152 267.967 117.922C270.487 116.622 271.793 114.377 272.731 111.838Z" fill="#F49C82"/>
<path d="M401.124 231.693C401.184 239.734 399.71 247.56 397.593 255.259C393.284 270.926 387.521 286.056 380.579 300.744C380.003 301.963 379.367 303.109 378.455 304.101C376.834 303.967 376.284 302.62 375.715 301.468C372.612 295.209 370.997 288.582 370.247 281.62C369.336 273.144 370.046 264.949 372.92 256.935C376.197 247.788 381.43 240.324 390.55 236.089C392.969 234.963 395.214 233.455 397.673 232.39C398.745 231.928 399.784 231.01 401.117 231.693H401.124Z" fill="#CBCBCB"/>
<path d="M401.124 231.693C397.78 233.409 394.47 235.191 391.093 236.833C377.939 243.225 373.068 254.851 371.252 268.326C369.858 278.645 371.352 288.643 375.212 298.312C376.05 300.403 377.108 302.326 378.462 304.101C378.328 305.307 378.154 306.5 377.236 307.418C374.729 303.673 371.754 300.235 370.441 295.752C365.395 278.565 364.745 261.806 375.105 246.107C378.924 240.317 384.767 237.128 390.831 234.166C394.269 232.491 398.142 231.492 400.842 228.49C401.606 229.502 401.358 230.595 401.124 231.693Z" fill="#A3A3A3"/>
<path d="M284.263 347.589C281.074 343.193 282.762 339.025 284.866 334.878C288.183 335.447 291.768 333.852 294.864 336.144C293.651 337.457 292.17 336.693 290.783 336.68C289.021 336.667 287.037 336.338 286.642 338.871C286.287 341.143 287.533 342.965 289.939 343.428C298.187 345.016 306.516 344.975 314.839 344.372C318.477 344.111 322.163 343.87 325.687 342.704C326.552 342.423 327.443 342.496 328.294 342.858C328.535 344.46 328.495 345.927 326.498 346.396C323.576 348.011 320.253 348.018 317.13 348.185C307.602 348.688 298.053 348.668 288.512 349.009C286.783 349.07 285.61 348.245 284.257 347.589H284.263Z" fill="#B12627"/>
<path d="M276.986 184.943C270.688 196.414 265.655 208.536 259.055 219.853C257.233 225.274 253.353 229.154 248.87 232.229C240.675 237.851 231.274 238.629 221.658 237.965C220.754 237.905 219.923 237.583 219.146 237.121C215.212 236.089 211.4 234.588 207.285 234.293C206.635 234.246 206.461 233.663 206.361 233.101C222.416 231.466 237.693 227.633 250.786 217.528C251.818 216.731 252.998 216.148 254.056 215.324C258.419 211.94 259.719 208.134 257.32 202.8C255.423 198.585 256.576 196.669 260.442 195.751C267.176 194.149 271.405 189.888 273.743 183.522C274.004 182.812 274.393 182.148 274.728 181.465C277.047 181.599 277.408 183.013 276.986 184.936V184.943Z" fill="#D32045"/>
<path d="M276.986 184.942C276.718 183.475 276.001 182.289 274.728 181.471C274.38 180.547 273.301 179.977 273.435 178.818C274.232 176.761 275.887 175.461 277.542 174.161C277.737 174.141 277.938 174.134 278.132 174.141C280.109 179.709 284.773 183.16 288.525 187.328C294.562 194.035 302.952 194.156 310.912 194.766C323.536 195.744 336.187 196.36 348.872 196.38C351.049 196.38 353.763 195.402 355.767 197.453C352.121 198.712 348.269 198.424 344.536 198.679C330.907 199.597 317.258 200.408 303.602 200.776C296.07 200.977 289.744 197.674 284.498 192.166C282.112 189.66 280.464 186.329 276.993 184.942H276.986Z" fill="#E47867"/>
<path d="M277.542 174.168C276.758 176.232 274.983 177.424 273.435 178.825C272.517 179.736 271.753 180.56 270.694 178.811C267.478 173.498 263.819 168.432 260.938 162.944C258.988 159.225 259.692 155.01 261.246 150.896C263.478 160.981 270.909 167.293 277.542 174.175V174.168Z" fill="#D32045"/>
<path d="M96.6298 235.037C96.6097 210.941 96.5896 186.852 96.5695 162.763C128.458 162.75 160.34 162.736 192.229 162.736C193.187 162.736 194.273 162.415 195.01 163.406C189.2 181.076 177.93 194.799 164.133 206.834C154.913 214.875 144.466 220.657 133.316 225.495C121.55 230.608 109.153 232.993 96.6298 235.037Z" fill="#F72D57"/>
<path d="M174.164 391.914C160.427 388.792 152.025 378.586 150.323 362.96C152.373 361.593 154.665 362.411 156.836 362.324C160.736 362.17 164.642 362.263 168.542 362.25C169.862 362.746 169.661 364.046 169.962 365.044C172.489 373.333 181.494 376.161 188.329 370.787C189.194 370.11 189.877 369.179 191.003 368.864C192.919 369.587 192.229 370.988 191.686 372.12C188.276 379.317 183.84 385.783 177.822 391.07C176.777 391.988 175.584 392.524 174.157 391.907L174.164 391.914Z" fill="#CCCBCB"/>
<path d="M174.164 391.914C175.289 391.827 176.241 391.479 177.132 390.661C183.002 385.287 187.592 378.982 190.956 371.785C191.351 370.934 192.182 370.056 191.083 369.118C190.647 366.746 191.988 364.897 192.919 362.927C195.532 361.66 198.32 362.625 201.007 362.304C202.829 362.089 204.752 362.86 206.481 361.747C208.016 362.773 210.1 361.412 211.52 362.92C210.616 382.64 192.329 396.826 174.164 391.907V391.914Z" fill="#A3A2A2"/>
<path d="M192.919 362.927C193.482 365.339 191.7 367.055 191.083 369.118C187.719 373.427 183.431 375.37 177.997 374.003C171.932 372.482 169.339 368.066 168.549 362.25C176.127 361.279 183.732 362.022 191.318 361.888C191.847 361.882 192.39 362.565 192.926 362.934L192.919 362.927Z" fill="#66717B"/>
<path d="M176.764 338.791C173.199 338.791 169.634 338.844 166.069 338.757C165.031 338.731 163.523 338.664 163.704 337.096C163.865 335.695 165.279 336.204 166.183 336.157C172.85 335.843 179.538 336.64 186.191 335.675C186.299 335.662 186.433 335.628 186.52 335.675C187.699 336.278 190.031 335.447 189.991 337.323C189.951 339.159 187.84 338.804 186.453 338.824C183.223 338.878 179.993 338.838 176.764 338.838V338.784V338.791Z" fill="#6A1817"/>
<path d="M177.273 344.171C180.731 344.171 184.182 344.145 187.639 344.191C188.577 344.205 189.978 343.897 190.125 345.21C190.286 346.677 188.979 346.892 187.787 346.892C180.429 346.898 173.078 346.905 165.721 346.892C164.723 346.892 163.55 346.986 163.637 345.451C163.724 343.923 164.977 344.212 165.909 344.205C169.695 344.165 173.487 344.191 177.273 344.191V344.171Z" fill="#6F161C"/>
<path d="M176.944 322.233C173.373 322.233 169.808 322.267 166.237 322.207C165.238 322.186 163.744 322.702 163.644 320.967C163.543 319.198 165.031 319.54 166.063 319.533C173.199 319.493 180.342 319.493 187.478 319.513C188.557 319.513 190.058 319.359 189.977 320.933C189.897 322.454 188.376 322.18 187.317 322.193C183.86 322.233 180.402 322.207 176.944 322.207V322.227V322.233Z" fill="#6F1217"/>
<path d="M176.623 330.288C173.172 330.288 169.721 330.335 166.277 330.261C165.312 330.241 163.691 330.824 163.724 329.082C163.751 327.634 165.279 327.668 166.317 327.634C169.098 327.534 171.879 327.594 174.66 327.587C178.888 327.587 183.116 327.561 187.344 327.607C188.423 327.621 189.944 327.654 189.931 329.021C189.917 330.509 188.363 330.274 187.297 330.288C183.739 330.328 180.174 330.301 176.616 330.301V330.288H176.623Z" fill="#701614"/>
<path d="M223.119 362.243C219.38 362.632 215.641 362.478 211.902 362.33C215.635 361.332 219.374 361.479 223.119 362.243Z" fill="#D32045"/>
<path d="M375.246 200.917C373.617 202.223 371.956 203.497 370.361 204.85C367.339 207.41 364.27 207.678 362.126 205.5C359.847 203.188 360.129 200.81 363.07 197.426C365.57 196.347 368.069 195.275 370.569 194.196C371.138 193.774 371.835 193.928 372.465 193.794C374.421 193.358 376.311 193.318 377.068 195.637C377.765 197.768 377.665 199.784 375.246 200.917Z" fill="#B61A3B"/>
<path d="M375.246 200.917C375.413 200.522 375.48 200.039 375.755 199.758C377.041 198.438 376.733 196.97 376.197 195.516C375.594 193.875 374.12 194.25 372.853 194.203C372.09 194.176 371.326 194.203 370.568 194.203C372.84 192.655 375.828 191.844 377.678 193.499C379.366 195.007 379.661 198.049 379.025 200.669C378.636 202.284 378.288 203.905 377.919 205.527C377.082 206.103 376.17 206.753 375.205 206.03C374.368 205.406 374.783 204.421 374.924 203.557C375.071 202.686 375.145 201.801 375.252 200.924L375.246 200.917Z" fill="#E57969"/>
<path d="M219.146 237.121C222.825 237.107 226.51 237.195 230.182 237.054C240.079 236.672 248.515 233.054 254.934 225.341C256.388 223.592 257.373 221.461 259.055 219.86C266.171 224.852 273.79 229.047 281.181 233.59C289.724 238.843 298.368 243.936 306.912 249.189C310.986 251.688 312.909 255.474 312.339 260.238C311.194 269.861 309.894 279.463 308.627 289.072C306.831 302.654 305.009 316.236 303.2 329.812C302.972 331.507 303.233 333.142 303.809 334.737C303.568 335.085 303.28 335.132 302.938 334.871C300.747 333.564 298.194 334.234 295.889 333.578C295.681 333.517 295.447 333.571 295.219 333.564C287.339 333.457 285.148 331.387 286.294 323.754C287.044 318.776 286.897 313.784 287.319 308.812C288.431 295.739 289.195 282.619 288.873 269.465C288.639 260.004 284.927 254.898 275.975 252.05C269.321 249.933 262.406 249.584 255.598 249.283C246.17 248.867 237.077 247.092 228.252 244.096C224.687 242.884 221.25 240.652 219.139 237.114L219.146 237.121Z" fill="#4B6470"/>
<path d="M268.878 263.803C268.342 263.91 267.371 263.944 267.33 264.145C266.587 268.286 263.069 268.413 260.06 269.264C260.389 267.683 259.196 268.125 258.452 268.111C254.968 268.058 251.477 268.051 247.992 268.031C244.87 267.971 241.754 267.87 238.638 267.863C212.988 267.85 187.337 267.857 161.352 267.857C162.283 266.55 163.53 266.269 164.682 265.867C172.495 263.153 180.65 262.208 188.798 261.136C200.692 259.568 212.626 258.65 224.613 258.436C238.785 259.695 253.098 259.715 267.016 263.186C267.645 263.347 268.255 263.595 268.878 263.803Z" fill="#CDCBCB"/>
<path d="M302.938 334.871C303.226 334.824 303.514 334.777 303.809 334.737C304.868 335.038 305.994 335.192 306.965 335.668C311.709 337.993 316.815 338.771 321.955 339.622C324.26 340.003 327.195 339.843 328.294 342.865C317.666 346.275 306.778 346.007 295.855 345.15C293.651 344.975 291.466 344.593 289.275 344.299C286.595 343.937 285.282 341.759 285.463 338.268C285.61 335.346 287.895 335.929 289.61 335.608C291.399 335.266 293.048 336.606 294.864 336.157C296.827 336.171 298.79 336.197 300.754 336.204C301.745 336.204 302.784 336.264 302.945 334.877L302.938 334.871Z" fill="#D73936"/>
<path d="M442.983 334.341C444.43 333.946 445.516 335.032 446.796 335.293C468.158 347.461 467.89 376.737 447.339 388.832C440.571 392.812 433.2 393.1 425.668 392.423C425.575 392.256 425.481 392.088 425.387 391.927C431.753 386.922 436.865 380.891 440.43 373.574C441.214 371.959 441.857 370.324 441.877 368.495C442.97 365.741 443.191 362.773 443.988 359.945C445.288 355.368 444.665 350.731 444.33 346.128C444.102 343.046 443.687 339.957 442.936 336.935C442.722 336.077 442.534 335.192 442.996 334.341H442.983Z" fill="#A2A2A2"/>
<path d="M442.306 369.118C442.956 372.361 440.785 374.693 439.425 377.159C436.584 382.312 432.677 386.687 428.342 390.674C427.451 391.492 426.493 391.814 425.38 391.921C404.883 387.686 394.993 363.309 406.565 345.558C407.107 344.721 407.657 343.883 408.2 343.052C414.559 338.476 421.956 336.593 429.428 335.018C433.877 334.08 438.427 333.859 442.983 334.348C445.871 342.369 445.724 350.705 445.536 359.04C445.516 359.831 445.08 360.253 444.303 360.327C442.501 358.136 441.837 355.234 439.284 353.425C434.165 349.8 428.329 350.135 423.987 354.718C420.308 358.598 419.919 365.171 423.129 369.091C427.055 373.882 433.555 374.841 438.721 371.43C439.907 370.646 440.718 369.279 442.306 369.125V369.118Z" fill="#CBCBCB"/>
<path d="M412.528 162.917C417.581 163.969 422.211 169.082 422.774 174.04C423.169 177.511 419.792 182.751 415.778 184.534C414.693 185.016 412.381 186.577 412.85 183.341C413.842 176.52 413.761 169.745 412.528 162.91V162.917Z" fill="#FBE9AE"/>
<path d="M442.306 369.118C435.874 377.822 424.161 374.975 420.871 366.86C418.21 360.307 421.829 352.614 428.322 350.604C435.652 348.339 442.501 352.5 444.303 360.32C444.524 363.456 443.713 366.351 442.306 369.118Z" fill="#66727B"/>
</svg>
